<?xml version="1.0" standalone="no"?>
<!DOCTYPE svg PUBLIC "-//W3C//DTD SVG 20010904//EN"
 "http://www.w3.org/TR/2001/REC-SVG-20010904/DTD/svg10.dtd">
<svg version="1.0" xmlns="http://www.w3.org/2000/svg"
 width="300.000000pt" height="93.000000pt" viewBox="0 0 300.000000 93.000000"
 preserveAspectRatio="xMidYMid meet">
<metadata>
Created by potrace 1.16, written by Peter Selinger 2001-2019
</metadata>
<g transform="translate(0.000000,93.000000) scale(0.100000,-0.100000)"
fill="#000000" stroke="none">
<path d="M473 855 c-77 -38 -149 -110 -178 -178 -23 -56 -20 -74 18 -86 33
-11 75 -49 94 -85 8 -15 13 -6 28 53 9 40 19 70 21 69 1 -2 -1 -29 -5 -60 l-7
-56 29 29 c33 33 125 64 168 55 28 -5 29 -5 29 37 0 23 -6 66 -13 94 -17 63
-76 163 -97 163 -8 0 -47 -16 -87 -35z"/>
<path d="M140 603 c-14 -2 -42 -9 -64 -14 l-39 -10 6 -57 c12 -136 99 -243
195 -242 33 0 112 35 112 49 0 6 -30 43 -67 83 -69 73 -54 68 47 -17 l55 -45
12 27 c35 80 -8 170 -97 206 -40 17 -123 27 -160 20z"/>
<path d="M551 565 c-77 -24 -121 -82 -121 -160 0 -25 2 -45 4 -45 2 0 45 16
95 35 49 19 94 35 98 35 4 -1 -23 -17 -62 -37 -38 -20 -80 -43 -92 -53 l-22
-17 37 -36 c20 -20 52 -42 70 -50 l33 -14 -40 -17 c-21 -10 -54 -33 -71 -51
l-32 -33 38 -25 c74 -46 79 -47 224 -47 l141 0 -15 28 c-18 34 -102 115 -141
135 -22 12 -25 16 -12 17 51 1 210 201 194 243 -9 24 -93 75 -151 92 -60 18
-117 18 -175 0z"/>
<path d="M950 455 c0 -95 0 -95 25 -95 23 0 25 4 25 43 l1 42 37 -43 c20 -23
45 -42 55 -42 15 0 17 11 17 95 0 95 0 95 -25 95 -23 0 -25 -4 -25 -42 l-1
-43 -37 43 c-20 23 -45 42 -54 42 -16 0 -18 -11 -18 -95z"/>
<path d="M1122 474 c3 -65 7 -79 27 -95 30 -25 72 -24 105 2 24 19 26 26 26
95 0 72 -1 74 -25 74 -24 0 -25 -2 -25 -65 0 -52 -4 -67 -16 -72 -26 -10 -44
25 -44 84 0 50 -1 53 -26 53 l-26 0 4 -76z"/>
<path d="M1290 455 l0 -95 29 0 c26 0 30 4 33 33 l3 32 20 -32 c14 -25 26 -33
47 -33 32 0 34 7 12 38 -13 19 -14 28 -4 53 25 59 -17 99 -101 99 l-39 0 0
-95z"/>
<path d="M1530 455 l0 -95 70 0 c56 0 70 3 70 15 0 14 4 14 31 -1 35 -18 90
-12 109 11 11 13 16 12 37 -5 45 -35 112 -18 133 34 7 17 9 15 9 -16 1 -34 4
-38 26 -38 22 0 25 4 26 38 0 34 1 35 11 15 13 -27 43 -30 57 -5 9 14 10 11
11 -15 0 -30 3 -33 30 -33 l30 0 0 95 0 95 -28 0 c-23 0 -32 -8 -49 -42 l-20
-43 -22 43 c-16 32 -27 42 -46 42 -22 0 -25 -4 -25 -37 l-1 -38 -14 26 c-27
50 -94 60 -137 21 -16 -14 -20 -13 -38 3 -30 27 -84 24 -115 -5 -19 -18 -25
-33 -25 -67 l0 -43 -40 0 c-22 0 -40 5 -40 10 0 6 16 10 35 10 31 0 35 3 35
25 0 22 -4 25 -35 25 -19 0 -35 5 -35 10 0 6 18 10 40 10 36 0 40 3 40 25 0
24 -2 25 -65 25 l-65 0 0 -95z"/>
<path d="M2190 455 c0 -95 0 -95 25 -95 22 0 25 4 26 38 0 34 1 35 11 15 6
-13 19 -23 28 -23 9 0 22 10 28 23 10 20 11 19 11 -15 1 -34 4 -38 26 -38 25
0 25 0 25 95 0 93 -1 95 -23 95 -17 0 -28 -10 -40 -35 -9 -19 -21 -35 -25 -35
-5 0 -17 16 -28 35 -13 24 -26 35 -41 35 -22 0 -23 -3 -23 -95z"/>
<path d="M2380 455 l0 -95 95 0 95 0 0 30 c0 17 4 30 8 30 4 0 16 -13 25 -30
14 -23 25 -30 49 -30 l30 0 -21 35 c-11 20 -16 37 -10 40 5 4 13 -5 18 -18 12
-31 48 -57 79 -57 26 0 63 17 74 34 5 6 8 1 8 -11 0 -22 4 -23 65 -23 63 0 65
1 65 25 0 23 -4 25 -40 25 -22 0 -40 5 -40 10 0 6 16 10 35 10 31 0 35 3 35
25 0 22 -4 25 -35 25 -19 0 -35 5 -35 10 0 6 18 10 40 10 36 0 40 3 40 25 0
24 -2 25 -65 25 -60 0 -65 -2 -65 -22 0 -19 -1 -20 -17 -6 -10 9 -28 19 -40
22 -31 10 -94 -19 -101 -46 -6 -23 -6 -23 -12 2 -9 39 -44 50 -167 50 l-113 0
0 -95z"/>
<path d="M154 141 c-28 -17 -74 -70 -74 -85 0 -3 49 -6 108 -6 106 0 109 1
135 28 35 37 34 46 -7 66 -47 22 -123 21 -162 -3z"/>
</g>
</svg>
