<?xml version="1.0" standalone="no"?>
<!DOCTYPE svg PUBLIC "-//W3C//DTD SVG 20010904//EN"
 "http://www.w3.org/TR/2001/REC-SVG-20010904/DTD/svg10.dtd">
<svg version="1.0" xmlns="http://www.w3.org/2000/svg"
 width="300.000000pt" height="38.000000pt" viewBox="0 0 300.000000 38.000000"
 preserveAspectRatio="xMidYMid meet">
<metadata>
Created by potrace 1.16, written by Peter Selinger 2001-2019
</metadata>
<g transform="translate(0.000000,38.000000) scale(0.100000,-0.100000)"
fill="#000000" stroke="none">
<path d="M60 190 l0 -130 35 0 34 0 3 60 3 60 48 -60 c39 -49 53 -60 77 -60
l30 0 0 130 0 130 -35 0 -35 0 0 -67 0 -66 -52 66 c-42 54 -58 67 -80 67 l-28
0 0 -130z"/>
<path d="M303 226 c6 -102 19 -135 63 -154 56 -26 130 -5 152 43 7 14 12 66
12 115 l0 90 -35 0 -35 0 0 -84 c0 -64 -4 -88 -16 -100 -19 -20 -29 -20 -48 0
-12 12 -16 36 -16 100 l0 84 -41 0 -42 0 6 -94z"/>
<path d="M550 190 l0 -130 35 0 c34 0 35 1 35 40 0 28 4 40 14 40 8 0 25 -18
37 -40 20 -36 27 -40 61 -40 21 0 38 3 38 8 0 4 -11 25 -24 47 -20 33 -22 43
-12 55 22 25 26 61 11 96 -18 44 -41 54 -124 54 l-71 0 0 -130z"/>
<path d="M890 190 l0 -130 95 0 95 0 0 35 0 35 -55 0 c-42 0 -55 3 -55 15 0
11 12 15 45 15 43 0 45 1 45 30 0 29 -2 30 -45 30 -33 0 -45 4 -45 15 0 12 13
15 55 15 l55 0 0 35 0 35 -95 0 -95 0 0 -130z"/>
<path d="M1140 307 c-33 -17 -70 -74 -70 -109 0 -75 59 -138 130 -138 38 0
100 32 100 52 0 6 10 2 23 -9 81 -74 195 -47 220 52 2 11 5 -6 6 -37 l1 -58
35 0 35 0 0 58 1 57 20 -38 c26 -49 59 -51 82 -5 l16 33 0 -52 1 -53 35 0 35
0 0 130 0 130 -34 0 c-27 0 -36 -5 -45 -28 -6 -15 -20 -40 -30 -56 l-20 -29
-27 56 c-27 54 -30 57 -66 57 l-38 0 -1 -62 c0 -46 -3 -56 -8 -37 -14 45 -31
68 -61 84 -55 28 -130 12 -163 -36 l-15 -21 -7 21 c-14 44 -101 65 -155 38z"/>
<path d="M1840 190 l0 -130 35 0 35 0 1 53 0 52 16 -32 c23 -47 56 -45 82 5
l20 37 1 -57 0 -58 35 0 35 0 0 130 0 130 -38 0 c-36 0 -39 -3 -66 -57 l-27
-56 -20 29 c-10 16 -24 41 -30 56 -9 23 -18 28 -45 28 l-34 0 0 -130z"/>
<path d="M2120 190 l0 -130 130 0 130 0 0 40 c0 53 22 53 51 0 20 -36 27 -40
61 -40 21 0 38 3 38 7 0 3 -11 25 -25 49 -16 28 -21 45 -14 49 6 4 14 17 19
29 8 18 9 17 9 -12 2 -102 124 -160 200 -96 l31 26 0 -26 0 -26 95 0 95 0 0
35 0 35 -60 0 c-47 0 -60 3 -60 15 0 11 12 15 50 15 49 0 50 1 50 30 0 29 -1
30 -50 30 -38 0 -50 4 -50 15 0 12 13 15 60 15 l60 0 0 35 0 35 -95 0 -95 0 0
-26 0 -26 -31 26 c-54 46 -151 29 -183 -32 l-14 -27 -11 26 c-17 45 -48 59
-128 59 l-73 0 0 -95 0 -95 -60 0 c-47 0 -60 3 -60 15 0 11 12 15 50 15 49 0
50 1 50 30 0 29 -1 30 -50 30 -38 0 -50 4 -50 15 0 12 13 15 55 15 l55 0 0 35
0 35 -90 0 -90 0 0 -130z m562 42 c16 -13 20 -13 43 2 l25 16 0 -55 c0 -59 -1
-60 -31 -45 -15 8 -25 6 -48 -11 -23 -17 -32 -19 -50 -10 -41 22 -40 105 2
120 23 9 32 7 59 -17z"/>
</g>
</svg>
