<?xml version="1.0" standalone="no"?>
<!DOCTYPE svg PUBLIC "-//W3C//DTD SVG 20010904//EN"
 "http://www.w3.org/TR/2001/REC-SVG-20010904/DTD/svg10.dtd">
<svg version="1.0" xmlns="http://www.w3.org/2000/svg"
 width="300.000000pt" height="300.000000pt" viewBox="0 0 300.000000 300.000000"
 preserveAspectRatio="xMidYMid meet">
<metadata>
Created by potrace 1.16, written by Peter Selinger 2001-2019
</metadata>
<g transform="translate(0.000000,300.000000) scale(0.100000,-0.100000)"
fill="#000000" stroke="none">
<path d="M1755 2839 c-407 -135 -733 -440 -825 -771 -29 -105 -28 -112 23
-128 61 -18 172 -74 230 -117 57 -42 130 -136 148 -190 12 -38 12 -37 55 127
23 91 57 206 74 255 34 96 118 277 145 310 12 15 11 10 -3 -20 -47 -96 -107
-338 -132 -530 -6 -49 -14 -99 -17 -110 -3 -11 9 1 25 27 56 86 197 177 333
214 48 14 101 18 217 19 l152 0 0 82 c0 221 -102 534 -244 747 -83 124 -75
121 -181 85z"/>
<path d="M482 1930 c-97 -13 -234 -45 -301 -72 l-54 -21 7 -96 c23 -326 168
-628 360 -753 85 -55 168 -78 280 -78 138 0 248 36 339 112 l27 23 -86 110
c-107 136 -313 342 -419 420 -102 74 -110 82 -55 55 136 -68 391 -256 578
-428 l90 -83 33 83 c31 77 33 92 33 198 1 160 -18 207 -128 316 -84 83 -148
125 -250 163 -129 48 -312 68 -454 51z"/>
<path d="M1870 1830 c-211 -45 -334 -132 -414 -291 -19 -38 -39 -99 -46 -139
-12 -69 -11 -232 1 -244 3 -3 68 21 145 55 183 80 323 132 466 174 129 38 336
80 345 71 4 -3 -1 -6 -10 -6 -26 0 -203 -58 -307 -102 -137 -56 -328 -159
-458 -245 l-112 -75 40 -48 c145 -174 298 -259 479 -268 119 -6 181 8 301 65
86 42 105 56 220 172 81 81 147 159 187 219 67 101 143 264 150 321 4 35 2 37
-85 102 -282 208 -623 299 -902 239z"/>
<path d="M1881 674 c-121 -32 -274 -141 -371 -264 l-29 -36 107 -71 c59 -39
143 -91 187 -115 l80 -43 453 0 c358 0 451 2 447 12 -20 53 -129 189 -239 298
-140 140 -213 188 -336 220 -70 19 -228 18 -299 -1z"/>
<path d="M664 485 c-33 -7 -90 -28 -125 -45 -82 -42 -197 -153 -238 -230 -17
-32 -31 -59 -31 -61 0 -2 158 -4 351 -4 l351 0 84 105 83 105 -32 29 c-69 61
-230 117 -337 115 -25 0 -72 -7 -106 -14z"/>
</g>
</svg>
